<svg id="Layer_1" xmlns="http://www.w3.org/2000/svg" viewBox="-415 217 128 128"><style>.st0{fill:#006def}</style><path class="st0" d="M-375.9 281c0 13.8 11.1 24.9 24.9 24.9s24.9-11.1 24.9-24.9-11.1-24.9-24.9-24.9-24.9 11.1-24.9 24.9z"/><path class="st0" d="M-351 217c-35.4 0-64 28.7-64 64 0 35.4 28.7 64 64 64 12.7 0 24.5-3.7 34.4-10l-9.5-18.5H-376l-5.8 11.4c-15.2-10-25.3-27.2-25.3-46.8 0-30.9 25.1-56.1 56.1-56.1s56.1 25.1 56.1 56.1c0 15.5-6.3 29.5-16.5 39.7l3.7 7.5c12.8-11.8 20.9-28.4 20.9-47.2-.2-35.5-28.8-64.1-64.2-64.1z"/></svg>